<svg xmlns="http://www.w3.org/2000/svg" width="682.28" height="682.28" viewBox="0 0 682.28 682.28"><defs><style>.cls-1{fill:none;}.cls-2{fill:#9cbcd9;}.cls-3{fill:#d1eaff;}.cls-4{fill:#7189af;}.cls-5{fill:#dbf8ff;}</style></defs><title>iconAsset 6</title><g id="Layer_2" data-name="Layer 2"><g id="Layer_1-2" data-name="Layer 1"><rect class="cls-1" width="682.28" height="682.28"/><polygon class="cls-2" points="595.38 222.57 595.38 649.37 86.9 649.37 86.9 32.91 403.86 32.91 403.86 3.25 400.61 0 56.47 0 56.47 682.28 625.81 682.28 625.81 225.2 623.18 222.57 595.38 222.57"/><polygon class="cls-3" points="403.86 32.91 86.9 32.91 86.9 649.37 595.38 649.37 595.38 222.57 403.86 222.57 403.86 32.91"/><polygon class="cls-2" points="598.54 197.93 595.38 197.93 595.38 222.57 623.18 222.57 619.54 218.93 598.54 197.93"/><polygon class="cls-3" points="598.54 197.93 595.38 194.77 595.38 197.93 598.54 197.93"/><polygon class="cls-3" points="431.57 30.96 431.57 32.91 433.52 32.91 431.57 30.96"/><polygon class="cls-3" points="625.65 222.57 623.18 222.57 625.81 225.2 625.81 222.73 625.65 222.57"/><polygon class="cls-2" points="401.18 0.37 398.47 0.37 398.47 225.57 625.81 225.57 625.81 221.25 617.1 212.69 401.18 0.37"/><polygon class="cls-3" points="421.94 51.34 420.16 51.34 420.16 202.26 569.98 202.26 569.98 199.37 564.24 193.63 421.94 51.34"/><path class="cls-4" d="M240.7,327.41,167.87,373l72.83,45.56v32.16L138.78,386.37v-26.8L240.7,295.24Z"/><path class="cls-4" d="M423.29,327.41V295.24l101.92,64.33v26.8L423.29,450.69V418.53L496.12,373Z"/><path class="cls-4" d="M321,492.1H296.21l48.07-237.53h24.78Z"/><polygon class="cls-5" points="571.62 226.74 571.62 617.5 107.88 617.5 107.88 53.09 396.95 53.09 396.95 25.94 393.99 22.96 80.13 22.96 80.13 647.63 599.38 647.63 599.38 229.15 596.97 226.74 571.62 226.74"/></g></g></svg>